<?xml version="1.0" encoding="utf-8"?>
<!-- Uploaded to: SVG Repo, www.svgrepo.com, Generator: SVG Repo Mixer Tools -->
<svg fill="#000000" width="800px" height="800px" viewBox="0 0 32 32" version="1.1" xmlns="http://www.w3.org/2000/svg">
<title>apachetomcat</title>
<path d="M6.194 19.343q0.512 0.632 1.137 1.276c-1.012 0.301-1.865 0.875-2.501 1.636l-0.007 0.008c-0.692 0.816-1.113 1.88-1.113 3.043 0 0.082 0.002 0.164 0.006 0.245l-0-0.011h-2.093c1.324-2.357 2.84-4.391 4.581-6.208l-0.010 0.011zM21.16 14.475h2.774l-1.355 0.893zM16.796 13.095c0.215 0.71 0.453 1.311 0.735 1.887l-0.033-0.074h-1.137v0.374h1.325q0.141 0.266 0.291 0.524h-1.615v0.372h1.847c1.136 1.714 2.618 3.109 4.354 4.113l0.062 0.033q0.29-0.167 0.57-0.35l0.452 0.487-0.762 1.172 1.3-0.592 0.757 0.815-1.273 0.97 1.753-0.454 2.381 2.562 0.2-0.017c0.089-0.011 0.192-0.017 0.296-0.017 0.735 0 1.397 0.309 1.865 0.803l0.001 0.001c0.109 0.116 0.199 0.25 0.265 0.398l0.004 0.009h-2.544c-4.717-2.822-10.258-4.82-16.175-5.635l-0.229-0.026c0.032-0.928 0.178-1.809 0.424-2.647l-0.019 0.075-0.5-0.135c-0.235 0.79-0.387 1.704-0.422 2.647l-0.001 0.020c-0.567-0.038-1.137-0.057-1.713-0.057-0.009-0-0.020-0-0.030-0-0.463 0-0.916 0.046-1.353 0.132l0.044-0.007c-0.471-0.469-0.917-0.962-1.335-1.477l-0.027-0.035c0.717-0.736 1.49-1.41 2.314-2.017l0.051-0.036 1.208 0.835-0.395-1.41c0.371-0.25 0.754-0.492 1.142-0.725l1.792 0.912-0.841-1.452c0.247-0.132 0.497-0.262 0.747-0.387l2.508 1.682-0.825-2.439c0.691-0.294 1.538-0.579 2.409-0.804l0.133-0.029zM21.398 12.693h2.657c-0.036 0.138-0.057 0.296-0.057 0.459 0 0.365 0.104 0.706 0.284 0.995l-0.005-0.008h-3.42c0.205-0.409 0.39-0.889 0.528-1.389l0.013-0.057zM20.711 9.803c-0.722 0.055-1.322 0.526-1.564 1.172l-0.004 0.012 0.315 0.117c0.196-0.53 0.674-0.912 1.247-0.966l0.006-0c0.007-0 0.015-0.001 0.022-0.001 0.174 0 0.325 0.098 0.401 0.242l0.001 0.002c0.102 0.295 0.16 0.634 0.16 0.987s-0.059 0.693-0.167 1.009l0.007-0.022h-1.533v0.336h1.448c-0.163 0.584-0.374 1.092-0.638 1.567l0.018-0.036-0.080 0.14 1.921 1.208-1.081 0.712 0.185 0.28 1.208-0.796 1.303 0.851 0.179-0.285-1.208-0.747 1.897-1.234c-0.263-0.317-0.422-0.728-0.422-1.176 0-0.172 0.024-0.339 0.068-0.498l-0.003 0.013 1.593-0.001 0.003-0.335h-1.468c0.249-0.723 0.923-1.232 1.716-1.232 0.101 0 0.2 0.008 0.297 0.024l-0.011-0.001v-0.337c-0.077-0.010-0.166-0.015-0.257-0.015-0.985 0-1.818 0.651-2.092 1.547l-0.004 0.015h-2.692c0.097-0.296 0.153-0.636 0.153-0.989 0-0.415-0.077-0.812-0.218-1.177l0.008 0.022c-0.136-0.248-0.395-0.413-0.692-0.413-0.007 0-0.014 0-0.021 0l0.001-0zM17.030 6.092c0.048 1.21 0.748 2.245 1.756 2.769l0.018 0.009c0.902-0.257 1.948-0.431 3.026-0.484l0.033-0.001 0.896 1.963 0.575-1.981c1.115 0.027 2.181 0.185 3.2 0.458l-0.095-0.022c0.802-0.656 1.357-1.587 1.519-2.648l0.003-0.024c0.145 0.915 0.228 1.97 0.228 3.044 0 0.124-0.001 0.247-0.003 0.37l0-0.018c0.002 0.080 0.003 0.174 0.003 0.269 0 0.783-0.073 1.55-0.212 2.292l0.012-0.077-1.030 0.437 0.907 0.137q-0.106 0.451-0.247 0.892l-0.878 0.256 0.7 0.251c-0.117 0.316-0.25 0.625-0.392 0.922h-1.45v0.374h1.26q-0.142 0.266-0.297 0.524h-0.962v0.372h0.729c-0.941 1.417-2.165 2.572-3.599 3.406l-0.052 0.028c-1.586-0.805-2.886-1.972-3.825-3.397l-0.023-0.037h0.557v-0.372h-0.795q-0.154-0.258-0.295-0.524h1.090v-0.374h-1.282c-0.185-0.364-0.379-0.815-0.547-1.279l-0.028-0.088 0.652-0.184-0.823-0.329c-0.082-0.269-0.159-0.537-0.225-0.807l1.268-0.086-1.45-0.769c-0.149-0.737-0.234-1.584-0.234-2.451 0-1.001 0.113-1.975 0.328-2.911l-0.017 0.087zM16.825 5.371c-0.41 0.991-0.648 2.142-0.648 3.349 0 0.212 0.007 0.422 0.022 0.63l-0.002-0.028-0.006 0.005c0.040 1.179 0.208 2.3 0.488 3.374l-0.024-0.107c-4.090 1.125-7.608 3.187-10.442 5.946l0.005-0.005c-0.82-1.008-1.407-2.237-1.662-3.584l-0.008-0.050c-0.034-0.193-0.053-0.416-0.053-0.642 0-0.933 0.324-1.791 0.866-2.467l-0.006 0.008c0.75-0.829 1.83-1.347 3.031-1.347 0.419 0 0.823 0.063 1.203 0.18l-0.029-0.008c-0.010 0.052-0.016 0.113-0.016 0.175 0 0.17 0.043 0.329 0.12 0.468l-0.003-0.005c0.639 0.385 1.41 0.612 2.235 0.612 0.643 0 1.254-0.138 1.804-0.387l-0.028 0.011c-0.766-1.092-2.019-1.797-3.437-1.797-0.041 0-0.082 0.001-0.123 0.002l0.006-0c-0.185 0.101-0.33 0.255-0.416 0.443l-0.002 0.006c-0.439-0.092-0.951-0.152-1.474-0.167l-0.013-0c-0.048-0.002-0.105-0.003-0.162-0.003-1.252 0-2.368 0.58-3.094 1.486l-0.006 0.008c-0.608 0.754-0.976 1.724-0.976 2.78 0 0.254 0.021 0.503 0.062 0.745l-0.004-0.026c0.287 1.517 0.929 2.85 1.837 3.957l-0.012-0.015c-0.172 0.184-0.337 0.366-0.497 0.545-1.745 1.804-3.205 3.897-4.298 6.198l-0.060 0.141v0.259h3.322l-0.057-0.307c-0.020-0.152-0.032-0.328-0.032-0.506 0-1.015 0.373-1.944 0.989-2.655l-0.004 0.005c0.641-0.761 1.51-1.311 2.501-1.545l0.032-0.006c1.239 1.184 2.581 2.286 4.003 3.282l0.11 0.073h2.469v-0.26c-0.001-0.304-0.163-0.571-0.405-0.719l-0.004-0.002c-0.255-0.142-0.559-0.225-0.882-0.225-0.239 0-0.467 0.045-0.676 0.128l0.012-0.004c-0.533-0.631-0.865-1.448-0.886-2.341l-0-0.004c6.097 0.863 11.587 2.857 16.465 5.77l-0.201-0.111h3.182l0.041-0.209c0.001-0.021 0.002-0.045 0.002-0.069 0-0.392-0.167-0.746-0.433-0.993l-0.001-0.001c-0.634-0.573-1.478-0.924-2.404-0.924-0.075 0-0.15 0.002-0.224 0.007l0.010-0c-0.642-0.765-4.176-4.487-4.383-4.705 1.347-0.954 2.462-2.139 3.311-3.506l0.030-0.051h1.735v-0.372h-1.516q0.146-0.258 0.279-0.524h1.236v-0.374h-1.056c0.746-1.596 1.182-3.465 1.182-5.436 0-0.121-0.002-0.241-0.005-0.361l0 0.018 0.004 0.002c-0.017-1.335-0.205-2.619-0.544-3.841l0.025 0.106c-1.275 0.498-2.296 1.413-2.917 2.574l-0.015 0.030c-0.77-0.115-1.659-0.181-2.563-0.181-1.065 0-2.108 0.091-3.123 0.267l0.108-0.015c-0.296-1.23-1.778-2.169-2.897-2.699z"></path>
</svg>