<svg xmlns="http://www.w3.org/2000/svg" xmlns:xlink="http://www.w3.org/1999/xlink" viewBox="0,0,256,256" width="96px" height="96px"><defs><linearGradient x1="21.861" y1="8.237" x2="25.703" y2="36.552" gradientUnits="userSpaceOnUse" id="color-1"><stop offset="0" stop-color="#000000"></stop><stop offset="1" stop-color="#000000"></stop></linearGradient></defs><g transform="translate(72.96,72.96) scale(0.43,0.43)"><g fill="url(#color-1)" fill-rule="nonzero" stroke="none" stroke-width="1" stroke-linecap="butt" stroke-linejoin="miter" stroke-miterlimit="10" stroke-dasharray="" stroke-dashoffset="0" font-family="none" font-weight="none" font-size="none" text-anchor="none" style="mix-blend-mode: normal"><g transform="scale(5.33333,5.33333)"><path d="M24,9.604c-5.589,0 -9.347,2.439 -11.276,7.318c-0.2,0.505 0.417,0.92 0.816,0.551c2.035,-1.882 4.322,-2.505 6.86,-1.871c1.826,0.456 3.131,1.781 4.576,3.247c2.352,2.387 5.075,5.151 11.024,5.151c5.589,0 9.348,-2.44 11.276,-7.319c0.2,-0.505 -0.417,-0.92 -0.816,-0.551c-2.035,1.882 -4.322,2.506 -6.86,1.872c-1.825,-0.456 -3.13,-1.781 -4.575,-3.247c-2.353,-2.388 -5.077,-5.151 -11.025,-5.151zM12,24c-5.589,0 -9.348,2.44 -11.276,7.319c-0.2,0.505 0.417,0.92 0.816,0.551c2.035,-1.882 4.322,-2.506 6.86,-1.871c1.825,0.457 3.13,1.781 4.575,3.246c2.353,2.388 5.077,5.152 11.025,5.152c5.589,0 9.348,-2.44 11.276,-7.319c0.2,-0.505 -0.417,-0.92 -0.816,-0.551c-2.035,1.882 -4.322,2.506 -6.86,1.871c-1.826,-0.456 -3.131,-1.781 -4.576,-3.246c-2.352,-2.388 -5.075,-5.152 -11.024,-5.152z"></path></g></g></g></svg>